# xmcd
#
# Track frame offsets:
#       150
#       18100
#       38427
#
# Disc length: 644 seconds
#
# Revision: 0
# Processed by: cddbd v1.4PL0 Copyright (c) Steve Scherf et al.
# Submitted via: CD-DA_X-Tractor v0.21
#
DISCID=11028203
DTITLE=Rio Reiser - Nur Dich
DYEAR=1900
DGENRE=
TTITLE0=Nur Dich (Radio Edit)
TTITLE1=Du bist es
TTITLE2=Sinn des Lebens
EXTD=
EXTT0=
EXTT1=
EXTT2=
PLAYORDER=
